<svg width="237" height="118" viewBox="0 0 237 118" fill="none" xmlns="http://www.w3.org/2000/svg">
<g clip-path="url(#clip0)">
<path d="M47.1853 65.276C46.9093 64.9493 46.048 64.344 45.3373 63.356C45.64 63.5267 46.9227 64.212 46.8787 63.7267C46.4107 63.2947 45.4453 62.2573 45.2467 62.0573C45.0587 61.8853 44.1826 61.6467 43.2973 61.2067C42.092 59.8587 37.4293 54.7893 36.996 53.4787C36.372 51.6147 35.6093 44.0813 35.6093 44.0813L30.18 46.8307C30.18 46.8307 32.156 52.2147 33.4453 55.528C33.744 56.296 33.704 56.6747 34.0906 57.0027C34.5466 57.392 35.2853 59.6867 41.48 63.268L41.564 63.308C41.852 63.7373 41.9627 64.444 44.2067 65.8133C44.7973 66.1733 45.7306 66.5747 45.896 66.5827C46.1533 66.5933 45.8573 66.3 45.4946 66.0053C46.228 66.516 46.3933 66.4493 46.5787 66.4267C46.9107 66.384 46.0387 65.9147 45.0773 65.0827C45.4627 65.384 46.784 66.504 47.0853 66.1973C47.1706 66.112 46.988 65.8587 46.736 65.5933L46.8893 65.6867C47.6093 66.088 47.6293 65.7893 47.1853 65.276Z" fill="#D1A18A"/>
<path d="M35.9307 41.4907C36.2147 42.276 37.28 50.304 37.28 50.304L32.5867 50.608C32.5867 50.608 33.7533 41.692 34.592 40.7867C35.4307 39.8827 35.9307 41.4907 35.9307 41.4907Z" fill="#51679A"/>
<path d="M115.649 107.115C114.979 107.561 114.924 109.121 114.924 109.121C114.924 109.121 114.972 110.613 117.211 110.907C119.327 111.185 120.348 112.36 122.841 112.412C125.461 112.469 126.464 111.464 126.464 111.464L125.907 108.063L115.649 107.115Z" fill="#302F2F"/>
<path d="M121.003 104.441C121.559 103.549 124.569 103.549 124.681 104.331C124.793 105.109 124.681 105.669 125.351 106.671C126.02 107.673 126.464 110.072 125.573 110.517C123.109 111.748 120.779 110.796 120.779 110.796C120.779 110.796 119.105 109.904 117.099 109.571C115.089 109.233 114.439 108.12 115.872 107.004C116.875 106.225 118.548 106.003 119.327 105.78C120.108 105.557 121.003 104.441 121.003 104.441Z" fill="#100F0D"/>
<path d="M140.075 105.348C146.063 108.565 146.004 108.837 147.111 109.187C147.789 109.399 147.497 110.311 147.497 110.311C147.497 110.311 145.423 113.608 140.133 109.767C138.327 108.459 138.037 109.361 136.816 109.069C134.155 108.436 135.168 108.449 135.168 108.449L135.071 106.393L140.075 105.348Z" fill="#302F2F"/>
<path d="M140.771 101.799C140.436 100.753 135.715 100.244 135.401 101.004C135.085 101.768 135.635 101.821 135.247 102.672C134.724 103.819 134.096 107.525 134.897 106.86C136.293 105.696 139.897 106.221 139.897 106.221C139.897 106.221 143.528 107.54 145.405 108.527C148.352 110.077 147.216 109.023 145.716 107.869C144.411 106.864 144.163 106.123 143.064 104.841C142.515 104.199 140.771 101.799 140.771 101.799Z" fill="#100F0D"/>
<path d="M139.957 108.78C137.011 110.02 135.983 109.552 135.013 108.759C134.159 108.061 133.817 105.859 135.535 105.753C143.213 105.289 139.957 108.78 139.957 108.78Z" fill="#302F2F"/>
<path d="M232.52 81.3667C231.368 74.1907 226.88 63.9787 226.88 63.9787C223.508 56.1667 184.976 44.9347 184.976 44.9347L161.66 23.9947C154.472 18.6067 71.624 17.8027 60.068 26.9587C57.656 26.9587 47.216 49.4347 43.844 73.5067C43.52 75.8707 42.728 79.0387 41.456 82.1707C40.808 83.7907 37.268 83.0947 38.048 85.0147C40.82 91.8067 52.544 93.7387 52.544 93.7387C52.544 93.7387 59.984 93.7507 62.6 93.7867C62.48 92.9827 62.408 92.1547 62.408 91.3147C62.408 82.6027 69.464 76.5067 78.164 76.5067C86.876 76.5067 93.92 82.6027 93.92 91.3147C93.92 92.2627 93.836 93.1987 93.68 94.0987C115.388 94.0147 160.652 94.0987 183.716 94.2667C183.476 93.1627 183.476 92.4787 183.476 91.3147C183.476 82.6027 190.532 76.5067 199.244 76.5067C207.944 76.5067 215 82.6027 215 91.3147C215 92.5267 214.856 93.7147 214.592 94.8547C223.292 94.8667 227.912 94.7467 228.704 94.2187C231.356 92.4067 235.4 89.0227 236.048 85.7827C236.204 84.4147 232.724 82.6987 232.52 81.3667Z" fill="#100F0D"/>
<path d="M183.944 91.4827C183.944 83.2387 190.628 76.5547 198.872 76.5547C207.116 76.5547 213.8 83.2387 213.8 91.4827C213.8 99.7267 207.116 106.411 198.872 106.411C190.628 106.411 183.944 99.7267 183.944 91.4827Z" fill="#100F0D"/>
<path d="M190.261 91.484C190.276 96.232 194.118 100.075 198.872 100.084C203.622 100.075 207.466 96.232 207.472 91.484C207.466 86.732 203.622 82.8867 198.872 82.8787C194.118 82.8867 190.276 86.732 190.261 91.484ZM188.746 91.484C188.749 85.892 193.28 81.356 198.872 81.356C204.462 81.356 208.99 85.892 208.99 91.484C208.99 97.0747 204.462 101.604 198.872 101.611C193.28 101.604 188.749 97.0747 188.746 91.484Z" fill="#848586"/>
<path d="M207.896 93.492C204.221 93.2707 201.497 92.456 201.497 91.484C201.497 90.5067 204.221 89.6973 207.898 89.4773C207.665 88.4253 207.246 87.4253 206.676 86.5147C203.922 88.9573 201.414 90.3227 200.726 89.6293C200.038 88.9373 201.393 86.432 203.837 83.6813C203.25 83.3107 202.616 83 201.934 82.7573C201.582 82.632 201.229 82.5347 200.876 82.4547C200.66 86.1307 199.842 88.8573 198.872 88.8573C197.897 88.8573 197.082 86.1307 196.861 82.4547C195.812 82.6893 194.809 83.108 193.908 83.6813C196.35 86.4333 197.705 88.9373 197.017 89.6293C196.328 90.3227 193.821 88.9573 191.068 86.5147C190.694 87.1053 190.378 87.7333 190.142 88.4187C190.02 88.768 189.921 89.1227 189.841 89.4773C193.517 89.6973 196.25 90.5067 196.25 91.484C196.25 92.456 193.517 93.2707 189.838 93.492C190.078 94.5427 190.497 95.54 191.07 96.4507C193.821 94.0027 196.329 92.648 197.017 93.336C197.705 94.024 196.35 96.536 193.902 99.2867C194.49 99.664 195.126 99.9733 195.808 100.215C196.158 100.337 196.506 100.429 196.861 100.516C197.082 96.836 197.897 94.1027 198.872 94.1027C199.842 94.1027 200.66 96.836 200.876 100.516C201.932 100.276 202.93 99.8613 203.83 99.2827C201.393 96.536 200.038 94.024 200.726 93.336C201.414 92.648 203.922 94.0027 206.676 96.4507C207.044 95.8613 207.362 95.228 207.602 94.5427C207.722 94.1947 207.82 93.844 207.896 93.492Z" fill="#848586"/>
<path d="M63.14 91.4827C63.14 83.2387 69.824 76.5547 78.068 76.5547C86.312 76.5547 92.996 83.2387 92.996 91.4827C92.996 99.7267 86.312 106.411 78.068 106.411C69.824 106.411 63.14 99.7267 63.14 91.4827Z" fill="#100F0D"/>
<path d="M69.4573 91.484C69.4693 96.232 73.312 100.075 78.064 100.084C82.8173 100.075 86.6626 96.232 86.668 91.484C86.6626 86.732 82.8173 82.8867 78.064 82.8787C73.312 82.8867 69.4693 86.732 69.4573 91.484ZM67.936 91.484C67.94 85.892 72.4733 81.356 78.064 81.356C83.6573 81.356 88.1893 85.892 88.1893 91.484C88.1893 97.0747 83.6573 101.604 78.064 101.611C72.4733 101.604 67.94 97.0747 67.936 91.484Z" fill="#848586"/>
<path d="M87.0907 93.492C83.4133 93.2707 80.692 92.456 80.692 91.484C80.692 90.5067 83.4133 89.6973 87.092 89.4773C86.86 88.4253 86.4413 87.4253 85.8653 86.5147C83.116 88.9573 80.6067 90.3227 79.9187 89.6293C79.2333 88.9373 80.5867 86.432 83.032 83.6813C82.4453 83.3107 81.8093 83 81.1293 82.7573C80.7747 82.632 80.424 82.5347 80.0733 82.4547C79.856 86.1307 79.0387 88.8573 78.064 88.8573C77.0907 88.8573 76.2773 86.1307 76.0547 82.4547C75.0093 82.6893 74.004 83.108 73.104 83.6813C75.544 86.4333 76.8973 88.9373 76.2107 89.6293C75.5227 90.3227 73.0147 88.9573 70.2613 86.5147C69.888 87.1053 69.576 87.7333 69.3387 88.4187C69.212 88.768 69.12 89.1227 69.036 89.4773C72.7147 89.6973 75.444 90.5067 75.444 91.484C75.444 92.456 72.7147 93.2707 69.0347 93.492C69.2693 94.5427 69.6933 95.54 70.2653 96.4507C73.0147 94.0027 75.5227 92.648 76.2107 93.336C76.8973 94.024 75.544 96.536 73.1 99.2867C73.684 99.664 74.3213 99.9733 75.004 100.215C75.3533 100.337 75.7027 100.429 76.0547 100.516C76.2773 96.836 77.0907 94.1027 78.064 94.1027C79.0387 94.1027 79.856 96.836 80.0733 100.516C81.1267 100.276 82.124 99.8613 83.028 99.2827C80.5867 96.536 79.2333 94.024 79.9187 93.336C80.6067 92.648 83.116 94.0027 85.8693 96.4507C86.2387 95.8613 86.556 95.228 86.7973 94.5427C86.916 94.1947 87.016 93.844 87.0907 93.492Z" fill="#848586"/>
<path d="M80.7919 76.4707H43.148C41.372 77.3587 37.7 77.9227 37.568 78.7267C37.496 79.1467 37.4359 79.5547 37.3879 79.9387C36.9199 84.0067 42.2599 86.6707 45.6199 87.9307H62.9239C62.9119 87.6187 62.8879 87.3067 62.8879 86.9947C62.8879 83.1547 69.3919 75.5947 80.7919 76.4707Z" fill="#302F2F"/>
<path d="M197.996 76.4707H79.2679C88.1839 76.3867 91.3039 82.8907 93.2359 86.9947C93.3679 87.2827 94.388 87.6187 94.376 87.9307H183.956C183.956 87.6427 183.956 87.3307 183.956 86.9947C183.956 83.1547 189.644 76.7107 197.996 76.4707Z" fill="#302F2F"/>
<path d="M235.508 79.3507C234.584 78.2947 232.268 76.7107 230.828 76.4707H197.348C206.348 75.3427 215.48 83.1547 215.48 86.9947C215.48 87.3067 215.468 87.6187 215.456 87.9307H232.928C234.092 86.0827 236.204 85.6747 236.528 83.5027C236.624 82.3627 236.504 81.1867 235.508 79.3507Z" fill="#302F2F"/>
<path d="M140.659 63.4733C140.659 63.9667 140.255 64.3707 139.76 64.3707H132.58C132.084 64.3707 131.679 63.9667 131.679 63.4733C131.679 62.9773 132.084 62.572 132.58 62.572H139.76C140.255 62.572 140.659 62.9773 140.659 63.4733Z" fill="#302F2F"/>
<path d="M125.3 63.4733C125.3 63.9667 124.901 64.3707 124.405 64.3707H117.225C116.727 64.3707 116.323 63.9667 116.323 63.4733C116.323 62.9773 116.727 62.572 117.225 62.572H124.405C124.901 62.572 125.3 62.9773 125.3 63.4733Z" fill="#302F2F"/>
<path d="M212.204 76.1227C212.204 73.5427 212.636 67.5907 215.048 67.5907C217.46 67.5907 227.984 67.7467 227.984 67.7467C227.984 67.7467 231.668 75.7987 230.624 75.7987C227.444 75.7987 212.204 76.1227 212.204 76.1227Z" fill="#100F0D"/>
<path d="M213.108 75.1334C213.108 73.0374 213.508 68.22 215.753 68.22C218.002 68.22 228.077 68.2734 228.077 68.2734C228.077 68.2734 230.87 74.9734 230.409 74.9734C227.438 74.9734 213.108 75.1334 213.108 75.1334Z" fill="#E7E8E6"/>
<path d="M219.584 74.7426L214.372 74.7973C213.302 74.812 213.624 73.272 213.942 71.5213C214.234 69.9347 214.857 68.7467 215.753 68.7467H219.71C219.952 68.7467 219.868 74.7413 219.584 74.7426Z" fill="#F2561A"/>
<path d="M62.432 91.7827H62.416C62.4107 91.6267 62.408 91.4707 62.408 91.3147C62.408 91.2267 62.4093 91.14 62.4107 91.052C62.4173 91.296 62.432 91.5387 62.432 91.7827ZM40.852 88.7333C38.5173 87.416 36.68 85.768 36.908 83.7906C36.956 83.4066 37.016 82.9987 37.088 82.5787C37.172 82.064 37.3107 81.5 37.4 81.0187C37.5347 81.9947 38.004 82.8787 38.6773 83.6707C38.096 83.916 37.744 84.2667 38.048 85.0147C38.64 86.4667 39.6426 87.696 40.852 88.7333ZM62.7787 87.9493C62.78 87.9427 62.7813 87.936 62.7827 87.9307H62.784C62.7826 87.9373 62.78 87.9427 62.7787 87.9493Z" fill="#302F2F"/>
<path d="M62.416 91.7827H48.0319C46.3093 91.1373 43.3066 90.1187 40.8519 88.7333C39.6426 87.696 38.64 86.4667 38.048 85.0147C37.744 84.2667 38.096 83.916 38.6773 83.6707C40.392 85.688 43.4266 87.108 45.6199 87.9307H62.7826C62.7813 87.936 62.78 87.9427 62.7786 87.9493C62.54 88.9 62.4079 89.8693 62.4079 90.8467C62.4079 90.9147 62.4093 90.984 62.4106 91.052C62.4093 91.14 62.4079 91.2267 62.4079 91.3147C62.4079 91.4707 62.4106 91.6267 62.416 91.7827Z" fill="#100F0D"/>
<path d="M62.9026 87.4933C62.9026 87.4787 62.9013 87.464 62.9013 87.448C63.4706 85.2934 64.5133 83.38 65.9147 81.7787C64.5653 83.5293 63.492 85.4653 62.9026 87.4933Z" fill="#302F2F"/>
<path d="M62.9013 87.448C62.8933 87.2973 62.8879 87.1453 62.8879 86.9947C62.8879 85.172 64.356 82.5093 67.1146 80.3107H67.148C66.7173 80.7827 66.3053 81.2733 65.9146 81.7787C64.5133 83.38 63.4706 85.2933 62.9013 87.448Z" fill="#100F0D"/>
<path d="M62.7839 87.9307H45.62C43.4266 87.108 40.392 85.688 38.6773 83.6707C38.004 82.8787 37.5346 81.9947 37.4 81.0187C37.4493 80.7493 37.4839 80.5053 37.4839 80.3107H67.1146C64.356 82.5093 62.888 85.172 62.888 86.9947C62.888 87.1453 62.8933 87.2973 62.9013 87.448C62.9013 87.464 62.9026 87.4787 62.9026 87.4933C62.8613 87.6387 62.8213 87.784 62.7839 87.9307Z" fill="#141311"/>
<path d="M93.912 91.7827H93.896C93.904 91.5573 93.9133 91.332 93.9173 91.1053C93.9187 91.1746 93.92 91.2453 93.92 91.3147C93.92 91.4707 93.9173 91.6267 93.912 91.7827Z" fill="#302F2F"/>
<path d="M183.476 91.7827H93.912C93.9173 91.6267 93.92 91.4707 93.92 91.3147C93.92 91.2453 93.9186 91.1746 93.9173 91.1053C93.9186 91.02 93.92 90.9333 93.92 90.8467C93.92 89.5587 93.7253 88.324 93.3453 87.124C93.6453 87.38 94.3867 87.664 94.376 87.9307H183.796C183.584 88.892 183.476 89.8707 183.476 90.8467C183.476 91.008 183.476 91.164 183.476 91.3147C183.476 91.4773 183.476 91.6333 183.476 91.7827ZM183.956 87.2733C183.956 87.1813 183.956 87.0893 183.956 86.9946C183.956 85.0533 185.412 82.4453 187.929 80.3106H188.204C186.1 82.2573 184.655 84.6933 183.956 87.2733Z" fill="#100F0D"/>
<path d="M90.012 81.4413C89.756 81.1453 89.488 80.8494 89.208 80.5534C89.292 80.6294 89.376 80.7067 89.4587 80.784C89.6507 81 89.8347 81.2187 90.012 81.4413Z" fill="#302F2F"/>
<path d="M89.4586 80.784C89.3759 80.7067 89.292 80.6293 89.208 80.5533C89.132 80.472 89.0546 80.392 88.976 80.3107H89.0173C89.1693 80.4667 89.3159 80.624 89.4586 80.784Z" fill="#100F0D"/>
<path d="M183.796 87.9307H94.376C94.3867 87.664 93.6454 87.38 93.3454 87.124C92.7214 85.152 91.5974 83.2787 90.012 81.4413C89.8347 81.2187 89.6507 81 89.4587 80.784C89.316 80.624 89.1693 80.4667 89.0173 80.3107H187.929C185.412 82.4453 183.956 85.0533 183.956 86.9947C183.956 87.0893 183.956 87.1813 183.956 87.2733C183.897 87.4907 183.844 87.7107 183.796 87.9307Z" fill="#141311"/>
<path d="M231.836 91.7827H231.826C233.79 90.032 235.629 87.8773 236.048 85.7827C236.074 85.548 235.994 85.3013 235.841 85.0493C236.178 84.6333 236.432 84.1453 236.528 83.5027C236.589 82.768 236.561 82.0187 236.268 81.088C236.609 81.7267 236.589 82.576 236.612 82.9746C236.672 84.0306 236.66 84.3067 236.564 85.4347C235.928 87.5947 233.744 90.6067 231.836 91.7827ZM214.993 91.7827H214.976C214.984 91.5573 214.993 91.332 214.997 91.1066C214.998 91.176 215 91.2453 215 91.3147C215 91.4707 214.997 91.6267 214.993 91.7827ZM214.818 88.9426C214.233 85.828 212.284 82.928 209.876 80.3106H210.006C212.528 82.4666 214.274 85.4346 214.818 88.9426Z" fill="#302F2F"/>
<path d="M231.826 91.7827H214.993C214.997 91.6267 215 91.4707 215 91.3147C215 91.2453 214.998 91.176 214.997 91.1066C214.998 91.02 215 90.9333 215 90.8467C215 90.204 214.937 89.5693 214.818 88.9426C214.274 85.4346 212.528 82.4666 210.006 80.3106H210.42C213.476 82.5253 215.48 85.196 215.48 86.9946C215.48 87.3066 215.468 87.6187 215.456 87.9307H232.928C233.748 86.6293 235.036 86.0413 235.841 85.0493C235.994 85.3013 236.074 85.548 236.048 85.7827C235.629 87.8773 233.79 90.032 231.826 91.7827Z" fill="#100F0D"/>
<path d="M232.928 87.9307H215.456C215.468 87.6187 215.48 87.3067 215.48 86.9947C215.48 85.196 213.476 82.5253 210.42 80.3107H235.196C235.736 80.404 236.065 80.7093 236.268 81.088C236.561 82.0187 236.589 82.768 236.528 83.5027C236.432 84.1453 236.178 84.6333 235.841 85.0493C235.036 86.0413 233.748 86.6293 232.928 87.9307Z" fill="#141311"/>
<path d="M46.4347 64.188C47.5853 63.616 49.0067 64.8346 49.3267 67.7226C49.6467 70.6146 48.9253 75.308 48.9253 75.308H43.024C43.024 75.308 44.5107 65.156 46.4347 64.188Z" fill="#CD1E25"/>
<path d="M49.808 75.5534C49.808 76.148 49.088 76.6347 48.204 76.6347H44.028C43.1426 76.6347 42.424 76.148 42.424 75.5534C42.424 74.952 43.1426 74.4667 44.028 74.4667H48.204C49.088 74.4667 49.808 74.952 49.808 75.5534Z" fill="#E7E8E6"/>
<path d="M89.724 51.5467C89.3347 55.1107 86.6067 58.1 83.6573 58.1H61.684C58.7333 58.1 57.1813 55.1107 58.188 51.5467L62.8814 34.9214C63.684 32.0774 66.352 29.8427 68.8667 29.8427H87.584C90.096 29.8427 91.8867 32.0774 91.5747 34.9214L89.724 51.5467Z" fill="#B1E3F8"/>
<path d="M124.42 51.5467C124.695 55.1107 122.536 58.1 119.581 58.1H97.6093C94.656 58.1 92.544 55.1107 92.8813 51.5467L94.4413 34.9214C94.708 32.0774 96.956 29.8427 99.4693 29.8427H118.189C120.704 29.8427 122.916 32.0774 123.135 34.9214L124.42 51.5467Z" fill="#B1E3F8"/>
<path d="M175.873 53.0427C174.407 50.5413 158.66 32.8853 153.899 30.724C152.997 30.168 152.005 29.8427 151.027 29.8427H131.901C129.333 29.8427 127.471 32.0774 127.751 34.9214L129.38 51.5467C129.729 55.1107 132.468 58.1 135.481 58.1L173.563 57.8747C173.563 57.8747 177.852 56.4133 175.873 53.0427Z" fill="#B1E3F8"/>
<path d="M179.657 92.8854L129.704 92.8973C129.704 92.8973 127.644 55.18 127.175 44.972C126.704 34.768 125.775 27.0494 125.775 27.0494C129.063 27.0494 151.945 26.2987 155.705 29.08C159.457 31.864 179.764 52.4893 179.657 55.3053C179.496 59.5427 179.657 92.8854 179.657 92.8854ZM180.476 55.212C180.972 52.32 160.133 31.4893 156.196 28.5974C152.255 25.708 128.133 26.308 124.689 26.308C124.689 26.308 125.84 33.5334 126.333 44.1307C126.828 54.728 128.624 94.2253 128.624 94.2253H180.476C180.476 94.2253 179.988 58.1 180.476 55.212Z" fill="#302F2F"/>
<path d="M172.216 52.1773C172.216 55.3 169.405 57.832 165.933 57.832C164.205 57.832 164.049 55.3 164.049 52.1773C164.049 49.0533 164.205 46.524 165.933 46.524C169.405 46.524 172.216 49.0533 172.216 52.1773Z" fill="#100F0D"/>
<path d="M177.505 55.1307C177.505 57.056 177.505 58.5 176.384 58.0173C175.26 57.54 171.407 54.3267 170.604 54.3267C169.803 54.3267 171.569 50.3133 171.569 50.3133L177.505 55.1307Z" fill="#100F0D"/>
<path d="M141.307 14.0667L139.444 16.756L129.645 9.84268L131.513 7.15069L141.307 14.0667Z" fill="#394CA8"/>
<path d="M131.513 7.15069C131.612 7.22135 131.273 7.87869 130.756 8.62136C130.243 9.36003 129.744 9.90934 129.647 9.84001C129.551 9.77601 129.888 9.11868 130.404 8.37334C130.919 7.63334 131.416 7.08402 131.513 7.15069Z" fill="#C3CAD0"/>
<path d="M130.839 8.036L130.241 8.89999L129.749 8.55732L130.347 7.69599L130.839 8.036Z" fill="#8DA1BD"/>
<path d="M130.559 7.70531L129.831 8.75333L129.279 8.36799L130.005 7.31732L130.559 7.70531Z" fill="#100F0D"/>
<path d="M133.397 7.75734C133.041 7.292 132.576 6.76133 132.273 6.768C132.02 6.77333 132.273 7.44535 132.527 7.99868C132.42 7.80535 132.299 7.57868 132.135 7.30268C131.481 6.18668 131.649 8.06802 131.649 8.06802C131.649 8.06802 132.431 10.0267 131.504 10.0453C130.965 9.69468 130.641 9.51601 130.427 9.43201C130.215 9.08535 129.933 8.63201 129.763 8.41067C129.471 8.02801 129.399 8.46934 129.417 8.82267C129.423 9 129.881 9.97334 129.881 9.97334L129.909 9.97068C130.071 10.2907 130.824 10.688 131.169 10.988C131.597 11.3667 134.031 12.824 134.031 12.824C134.031 12.824 135.5 16.3893 135.573 18.1973C135.624 19.4747 139.041 17.836 139.041 17.836C139.041 17.836 137.168 12.3253 136.875 10.8013C136.585 9.30802 134.704 7.94801 134.704 7.94801C134.704 7.94801 133.492 7.02402 133.295 7.05468C133.057 7.08802 133.197 7.42934 133.397 7.75734Z" fill="#D1A18A"/>
<path d="M129.531 59.6853C131.699 59.196 133.785 58.296 133.785 58.8693C133.785 59.4413 132.639 61.1986 131.904 61.076C131.168 60.9533 129.531 59.6853 129.531 59.6853Z" fill="#100F0D"/>
<path d="M110.057 63.988C109.933 63.3147 112.359 62.7307 113.339 62.9774C114.319 63.2227 114.628 67.024 114.319 67.2107C114.319 67.2107 111.163 65.736 110.855 65.124C110.548 64.5094 110.057 63.988 110.057 63.988Z" fill="#100F0D"/>
<path d="M144.863 105.584C145.743 104.976 138.895 81.2306 138.664 80.2573C138.279 78.648 136.967 73.9 135.013 66.476C133.385 60.2946 130.661 53.54 129.307 51.4293L127.309 51.428L127.152 51.56C130.079 57.3106 136.033 77.1453 137.139 85.8533C137.539 89.024 139.84 98.0226 139.764 103.848C140.623 103.631 144.48 105.847 144.863 105.584Z" fill="#394CA8"/>
<path d="M129.647 27.6173C129.041 24.9213 128.297 21.5467 128.297 21.5467C128.297 21.5467 132.249 20.776 135.041 19.3293C135.08 18.5813 134.128 12.9693 134.128 12.9693C134.577 10.816 136.867 11.4987 137.019 11.9573C138.128 15.2813 140.481 19.4893 139.747 23.2333C136.779 26.7507 131.024 28.2973 129.647 27.6173Z" fill="#D1A18A"/>
<path d="M134.116 66.808C132.864 60.5427 130.563 53.6307 129.335 51.4467C129.335 51.4467 111.065 51.9507 111.008 54.6547C110.823 63.2094 114.652 80.5574 114.901 80.936C115.231 84.6307 115.94 87.4254 116.201 89.32C116.596 93.168 117.72 102.467 117.72 105.149C117.72 107.44 121.148 106.013 121.148 106.013C121.148 106.013 126.848 108.04 127.037 106.34C127.2 104.868 125.765 91.004 125.403 88.8387L122.323 63.7574C123.152 63.4187 127.649 77.3174 128.007 78.4054C128.843 80.952 134.635 104.588 135.139 103.945C136.652 101.439 142.668 105.083 143.064 104.841C143.973 104.285 135.617 74.336 134.116 66.808Z" fill="#2A3A8D"/>
<path d="M119.351 20.964C119.757 22.0267 120.167 24.9707 121.804 25.8707C121.885 27.916 113.133 30.4507 111.416 27.3427C112.235 24.7253 112.399 22.4347 112.317 21.6987C112.235 20.964 119.351 20.964 119.351 20.964Z" fill="#D1A18A"/>
<path d="M122.491 65.2506C122.779 67.492 123.719 80.14 124.948 86.0666C125.944 90.8733 128.224 105.053 127.037 106.34C125.852 107.628 124.256 107.323 124.419 106.503C124.584 105.685 121.919 72.66 121.984 70.672C122.147 65.6 122.491 65.2506 122.491 65.2506Z" fill="#394CA8"/>
<path d="M12.484 106.485C12.3346 108.279 12.5587 110.093 13.376 110.141C16.128 110.312 15.3067 108.904 17.5947 109.732C19.312 110.364 23.0267 110.109 23.5787 109.531C24.0627 109.016 24.7013 108.132 22.304 107.375C20.0267 106.648 18.4533 104.447 17.5253 103.281C16.6 102.111 15.132 103.26 15.132 103.26L12.7173 103.995L12.484 106.485Z" fill="#100F0D"/>
<path d="M14.0907 67.236C14.0907 71.4173 14.2267 81.568 13.4427 85.7547C12.6573 89.936 11.44 96.2493 11.6107 101.377C11.8027 107.259 13.2546 106.857 13.2546 106.857C13.2546 106.857 19.4986 106.692 20.0213 105.385C20.536 104.08 19.0573 97.032 19.316 95.2027C19.5813 93.372 20.3613 88.4066 21.4093 85.272C22.4547 82.136 14.0907 67.236 14.0907 67.236Z" fill="#2A3A8D"/>
<path d="M11.6093 101.284C11.4386 96.156 12.6573 89.84 13.4413 85.6573C14.1386 81.9346 14.028 73.328 14.0813 68.696C14.2267 68.6333 14.5586 68.536 14.9226 68.6613C15.2186 69.212 15.576 69.8827 15.9706 70.6413C17.0133 76.6307 14.9173 87.1013 14.3973 91.9493C13.8986 96.6107 14.3253 104.344 14.588 106.692C13.8053 106.749 13.2546 106.763 13.2546 106.763C13.2546 106.763 11.8026 107.165 11.6093 101.284Z" fill="#394CA8"/>
<path d="M20.2253 108.323C20.028 110.111 20.4226 111.723 21.5013 111.812C23.6213 111.989 23.6373 110.988 25.896 111.883C27.6013 112.559 31.4493 112.008 32.0147 111.443C32.5107 110.944 33.78 110.065 31.3986 109.24C29.1426 108.452 26.632 107.277 25.8293 105.063C25.3266 103.661 23.44 104.975 23.44 104.975L21.0067 105.651L20.2253 108.323Z" fill="#302F2F"/>
<path d="M25.268 65.6507C25.788 68.7854 28.6826 81.9507 29.0279 82.9414C29.4853 84.2454 29.972 85.8147 28.768 88.428C28.3746 89.284 28.2799 90.2894 28.0173 92.3827C27.7586 94.4707 27.7586 100.681 28.0173 102.775C28.2799 104.864 27.5466 107.381 27.5466 107.381C27.5466 107.381 21.164 108.144 20.6826 107.477C19.4866 105.827 19.84 99.924 19.9386 98.3374C20.428 90.596 21.4093 88.9307 20.8853 87.1014C20.3639 85.272 17.4893 75.0774 15.9186 73.2494C14.3559 71.4174 11.9413 66.3414 13.3093 63.0574C14.676 59.7707 15.5413 58.0294 15.5413 58.0294L25.0706 61.4894L25.268 65.6507Z" fill="#2A3A8D"/>
<path d="M19.9266 107.76C18.7359 106.108 19.8399 99.924 19.9386 98.3373C20.4279 90.596 20.64 86.36 20.116 84.532C19.5946 82.704 17.4186 75.0773 15.8506 73.2493C14.2853 71.4173 11.8719 66.3413 13.2373 63.0573C14.6039 59.7707 15.4706 58.0293 15.4706 58.0293L17.5773 58.792C16.7813 60.728 15.3559 63.3533 16.4506 66.5667C17.1839 68.7253 23.2693 81.8493 23.1266 85.6573C23.0039 88.9907 22.2399 101.991 22.7506 107.76C21.5493 107.979 20.0959 107.995 19.9266 107.76Z" fill="#394CA8"/>
<path d="M36.3519 34.0547C35.6573 34.812 33.38 36.2147 31.3453 37.0493C28.2226 38.3333 30.0453 38.176 30.0453 38.176L33.3626 43.4947C33.3626 43.4947 37.4293 40.712 38.7866 40.7627C40.1479 40.8147 36.3519 34.0547 36.3519 34.0547Z" fill="#D1A18A"/>
<path d="M43.4613 40.472C43.5293 39.8973 44.292 38.5707 44.3947 38.2L44.42 38.1707C45.3773 37.6947 46.588 36.572 46.9173 34.908C46.9413 34.7933 46.5067 34.5667 46.412 34.3027C46.52 31.404 40.8707 26.7027 37.8733 29.7427C32.244 35.4507 37.4213 40.812 38.6987 42.02C38.932 42.2387 39.56 42.5027 40.684 41.4267C41.3373 41.116 41.7507 40.888 42.2373 40.54C42.712 40.7467 43.1653 40.7853 43.372 40.5733L43.4613 40.472Z" fill="#D1A18A"/>
<path d="M40.648 28.2334C41.6307 28.22 42.7413 27.4147 44.4133 29.2454C45.8507 30.8134 47.6973 32.4493 47.352 34.372C47.028 36.1667 47.5213 36.276 47.5213 36.276C47.5213 36.276 47.484 37.636 46.3053 37.1787C45.8106 36.992 44.688 34.8774 43.576 35.116C42.6493 35.32 41.5346 35.06 41.5346 35.06C41.5346 35.06 39.468 34.612 38.9906 35.096C38.8306 35.256 37.4013 36.1534 36.7306 36.2494C35.388 36.4387 33.6093 35.5667 33.6093 35.5667C33.6093 35.5667 34.676 34.4627 35.92 31.6107C37.3986 28.24 39.2107 28.248 40.648 28.2334Z" fill="#2A1412"/>
<path d="M41.0146 34.9627C42.3346 33.7307 40.4053 33.2893 40.0413 33.6733C39.6346 34.104 38.2773 34.9307 38.6746 35.8947C39.06 36.8507 41.0146 34.9627 41.0146 34.9627Z" fill="#D1A18A"/>
<path d="M48.4266 40.3933C49.1386 41.504 48.4826 42.204 47.2666 42.0253C46.0493 41.84 46.04 41.2253 45.6226 40.2947C44.9666 38.844 44.6453 37.4933 44.6453 37.4933L48.4266 40.3933Z" fill="#302F2F"/>
<path d="M35.9307 31.3467C36.6893 31.8053 41.852 33.7413 41.852 33.7413C41.852 33.7413 42.744 37.3947 43.8613 38.2827C44.98 39.1693 47.9107 39.0987 48.6987 41.0693C47.9587 38.5027 47.3253 37.5147 47.3253 37.5147C47.3253 37.5147 48.7027 35.4827 47.7733 32.3293C47.372 30.9653 45.948 29.1947 45.0253 28.8013C44.1053 28.404 42.0653 27.124 39.832 28.2107C37.596 29.296 35.9307 31.3467 35.9307 31.3467Z" fill="#100F0D"/>
<path d="M39.1546 28.076C36.9173 29.1613 35.9026 31.368 35.9026 31.368C36.5386 31.756 40.2786 33.184 41.46 33.6293C42.144 31.788 43.6653 29.5653 45.2226 28.952L44.9986 28.824C44.0773 28.4307 41.392 26.9947 39.1546 28.076Z" fill="#302F2F"/>
<path d="M35.0067 43.16C34.5534 41.88 33.844 41.144 33.32 40.3413C32.3187 38.8067 31.412 36.6747 31.412 36.6747C26.16 38.708 24.712 40.0853 20.0267 49.0067C17.7867 53.2733 12.2254 58.9854 14.7814 59.696C21.0027 61.4227 23.5413 63.4467 24.6947 65.1787C25.1293 65.8294 26.2147 66.3867 26.5027 65.8294C28.484 61.952 33.312 53.9947 34.22 51.5C34.5573 50.5707 35.272 43.904 35.0067 43.16Z" fill="#2A3A8D"/>
<path d="M32.1613 36.116C32.0467 36.66 33.8773 41.592 35.4907 42.964C35.416 43.78 35.1173 44.296 35.1173 44.296C35.1173 44.296 31.4907 38.932 31.2547 36.5253C31.2053 36.0613 32.1613 36.116 32.1613 36.116Z" fill="#394CA8"/>
<path d="M20.016 49.0067C24.7013 40.0853 26.16 38.708 31.412 36.6747C31.412 36.6747 32.2213 38.6693 32.8266 39.8907C32.0426 40.3307 30.276 40.4107 29.324 41.2733C28.312 42.196 23.2466 48.092 21.588 51.8667C19.928 55.644 17.2 56.1533 17.1653 57.7627C17.132 59.372 17.7186 59.5133 16.892 60.1587L16.6147 60.284C16.0413 60.08 15.4346 59.8827 14.772 59.6973C12.2133 58.9853 17.7733 53.2747 20.016 49.0067Z" fill="#394CA8"/>
<path d="M124.539 22.3173C125.889 22.0293 131.573 20.3907 131.573 20.3907C131.573 20.3907 133.405 30.028 133.405 30.4133C133.405 30.4133 127.287 31.4733 126.612 31.3773C125.936 31.28 124.539 22.3173 124.539 22.3173Z" fill="#51679A"/>
<path d="M93.3133 19.7147C94.0853 18.1734 97.3853 18.4854 98.9266 19.064C100.469 19.6414 102.661 20.4387 103.916 19.956C105.167 19.4747 109.24 17.3294 110.201 17.3294C111.168 17.3294 110.661 20.292 110.661 20.292C110.661 20.292 106.131 20.68 104.348 21.2573C102.565 21.8347 98.9266 21.088 97.4813 21.5214C94.9973 22.2667 90.616 26.4613 90.616 26.4613L89.4586 20.8707L93.3133 19.7147Z" fill="#CD1E25"/>
<path d="M103.421 18.9747C103.011 19.1187 102.604 19.2867 102.432 19.3893C102.496 19.2413 103.052 19.0987 103.421 18.9747ZM106.083 28.9667C106.083 28.9667 98.5653 31.9307 98.7093 30.9187C98.8347 30.0427 100.768 25.604 101.289 24.42C101.741 23.864 102.035 23.7987 102.035 23.7987C102.035 23.7987 104.136 23.2 104.564 22.8227C104.564 22.8227 105.696 21.884 106.083 21.5467C106.468 21.208 106.221 21.2147 105.74 21.2147C105.257 21.2147 104.492 22.136 104.348 21.2573C104.292 20.92 105.215 20.488 105.6 20.1493C105.987 19.812 106.276 20.052 106.565 20.052C106.853 20.052 106.661 19.6667 106.228 19.4747C105.793 19.2813 105.311 19.4253 105.167 19.4747C105.023 19.5227 103.916 19.956 103.916 19.956C103.916 19.956 105.072 19.3173 105.251 19.2813C105.432 19.2453 105.721 19.172 105.721 19.172C105.721 19.172 105.505 18.884 105.107 18.8467C104.708 18.8107 103.011 19.6413 103.011 19.6413C103.011 19.6413 104.781 18.7387 104.492 18.7027C104.353 18.6853 103.947 18.7973 103.527 18.94C103.723 18.868 103.828 18.804 103.675 18.752C103.24 18.6067 101.12 19.5707 101.12 19.5707C101.12 19.5707 99.4573 21.256 98.9266 22.3173C98.4933 23.3293 91.5773 30.148 93.5053 36.4107C93.5053 36.4107 103.264 36.7 106.805 35.6893C113.731 33.7107 106.083 28.9667 106.083 28.9667Z" fill="#D1A18A"/>
<path d="M107.889 28.316C107.015 27.9653 101.24 30.484 100.735 30.484C101.385 32.6534 102.903 38.0027 102.903 38.0027C102.903 38.0027 109.192 38.724 109.552 38.2187C109.915 37.7134 108.612 28.6053 107.889 28.316Z" fill="#51679A"/>
<path d="M132.905 50.1574C130.941 47.7654 126.809 39.036 126.707 37.5934C126.569 35.6534 127.395 33.4214 127.045 30.2694C126.903 28.9894 126.349 21.4774 124.539 22.3174C121.841 23.5707 119.927 22.8 120.331 23.7427C120.571 24.3027 117.291 26.1907 115.18 26.6654C112.976 27.1627 111.213 26.4374 111.213 26.4374C111.213 26.4374 108.583 27.4374 105.649 28.6054C104.727 28.9747 108.224 39.56 108.368 40.2694C108.653 41.688 109.657 52.856 110.639 59.9707C110.808 61.1987 123.577 57.648 128.549 55.3094C131.863 53.8374 133.016 50.2907 132.905 50.1574Z" fill="#2A3A8D"/>
<path d="M127.037 30.04C125.809 32.82 125.809 36.0093 126.628 39.6093C127.447 43.2067 130.431 53.96 130.431 53.96C130.431 53.96 132.516 52.4893 133.171 50.1573C131.699 48.032 127.057 37.296 126.893 34.7627C126.732 32.228 127.037 30.04 127.037 30.04Z" fill="#394CA8"/>
<path d="M119.432 15.116C118.729 12.6707 116.74 11.1693 113.221 12.1307C108.829 13.332 109.476 15.8293 110.399 18.6693C111.355 21.6293 114.177 24.6947 116.427 24.1307C118.14 23.6973 119.736 21.684 119.327 18.832C119.725 18.4573 120.043 17.7733 120.085 16.752C120.127 15.7427 120.085 15.0227 119.432 15.116Z" fill="#E4B9A6"/>
<path d="M111.945 13.1133C109.849 14.0893 108.995 15.436 109.723 17.7293L109.875 17.9093C109.127 18.072 108.535 18.496 108.975 19.5214C109.332 20.344 110.657 21.1614 111.268 21.1507C112.543 23.904 114.731 24.54 116.395 24.1147L116.616 24.0387C116.616 24.0387 114.153 24.5507 111.945 13.1133Z" fill="#D1A18A"/>
<path d="M112.849 10.944C112.184 10.7827 109.519 12.4653 108.967 13.3573C108.481 14.136 108.495 15.5373 108.803 16.8533C109.091 18.164 109.723 21.2507 110.948 22.0667C112.417 23.048 115.751 21.6173 115.751 21.6173L112.849 10.944Z" fill="#2A3A8D"/>
<path d="M112.235 15.3813C112.872 18.276 114.607 21.944 114.607 21.944C115.16 22.3293 119.023 21.9227 119.84 19.0613C120.003 18.4867 119.432 15.116 119.432 15.116C119.432 15.116 118.948 13.4733 118 12.0093C117.552 11.312 116.979 10.9853 115.547 10.74C114.872 10.6253 112.58 10.692 112.359 11.0667C112.233 11.2773 111.703 12.9733 112.235 15.3813Z" fill="#394CA8"/>
<path d="M110.088 21.0853C109.924 22.148 109.757 24.8067 110.884 25.6227C112.664 26.912 121.005 23.6 121.128 22.1267C121.239 20.8093 119.656 17.4667 119.656 17.4667C119.656 17.4667 118.184 19.3667 114.076 20.7787C111.917 21.5187 110.088 21.0853 110.088 21.0853Z" fill="#2A3A8D"/>
<path d="M43.256 65.5106C45.168 64.52 47.248 63.516 48.5467 61.204C49.8493 58.892 51.44 58.456 53.3186 60.9133C52.596 61.3466 52.3053 60.48 51.5827 61.6373C50.8613 62.7933 51.1493 65.1066 51.728 66.5533C52.3053 67.9973 53.6066 71.1773 53.028 72.3346C52.4506 73.4906 50.572 72.7693 48.8373 71.9C47.1027 71.0333 42.0427 69.588 42.0427 70.744C42.0427 71.9 43.256 65.5106 43.256 65.5106Z" fill="#F2561A"/>
<path d="M26.8306 45.6587C26.276 41.524 32.2386 43.364 32.2386 43.364C32.7653 45.804 34.708 52.3013 35.58 54.6853L44.5013 60.7493C44.5013 60.7493 47.3773 61.704 47.8426 61.9493C48.216 62.1467 48.8066 62.7053 49.0213 62.956C49.0213 62.956 49.2933 63.7253 49.3386 63.8787C49.428 64.1947 49.3266 64.7987 48.9813 64.5147C48.78 64.3507 48.6973 63.7373 48.4373 63.4733C48.352 63.2973 47.732 62.9387 47.6333 62.892C47.4813 62.9107 48.3879 63.628 48.3879 63.628C48.3879 63.628 48.816 64.5147 48.9053 64.9987C48.972 65.36 48.7746 65.436 48.4239 65.0627L47.7746 64.1733L46.8653 63.5293C46.9973 63.6973 47.488 63.9173 47.716 64.2947C48.0773 64.9 48.556 65.456 48.2053 65.5453C47.884 65.624 47.176 64.7547 46.8693 64.5413C46.7226 64.44 46.3199 64.236 46.1853 64.1227C46.2933 64.2333 46.6426 64.428 46.8813 64.7333C47.2 65.1413 47.7079 65.596 47.5866 65.644C47.1386 65.8267 46.404 65.104 46.404 65.104C46.404 65.104 45.7 64.7693 45.168 64.52C44.6426 64.2787 43.9413 64.0613 43.2813 63.4493C43.076 63.2547 34.6973 60.1213 32.712 58.624C32.528 58.484 31.784 58.3133 31.5133 57.4813C30.5426 55.756 27.312 49.2707 26.8306 45.6587Z" fill="#E4B9A6"/>
<path d="M27.136 42.164C26.256 43.4587 27.3173 52.0507 27.3173 52.0507C27.3173 52.0507 32.312 51.2733 33.0226 50.8093C33.736 50.3427 31.6546 41.3253 31.1253 41.1707C30.5947 41.0173 28.6453 39.9373 27.136 42.164Z" fill="#8DA1BD"/>
<path d="M29.6693 40.7493C33.8067 40.6467 34.5187 49.656 34.592 50.5253C33.764 50.8013 29.368 51.72 29.368 51.72C29.368 51.72 28.6374 44.4107 28.7427 43.0467C28.9147 40.8693 29.6693 40.7493 29.6693 40.7493Z" fill="#51679A"/>
</g>
<defs>
<clipPath id="clip0">
<rect width="564.653" height="497.88" fill="white" transform="translate(-328 -218)"/>
</clipPath>
</defs>
</svg>
