<svg width="42" height="36" viewBox="0 0 42 36" fill="none" xmlns="http://www.w3.org/2000/svg">
<path d="M42 4.97738C40.4381 5.6625 38.7739 6.11662 37.0387 6.33712C38.8237 5.27137 40.1861 3.59662 40.8266 1.578C39.1624 2.57025 37.3249 3.27113 35.3666 3.66225C33.7864 1.97963 31.5341 0.9375 29.0771 0.9375C24.3101 0.9375 20.4724 4.80675 20.4724 9.55013C20.4724 10.2326 20.5301 10.8889 20.6719 11.5136C13.5135 11.1645 7.17938 7.73363 2.92425 2.50725C2.18138 3.79613 1.74563 5.27138 1.74563 6.8595C1.74563 9.8415 3.28125 12.4849 5.57025 14.0152C4.18687 13.989 2.82975 13.5874 1.68 12.9548C1.68 12.981 1.68 13.0151 1.68 13.0492C1.68 17.2335 4.66462 20.709 8.5785 21.5096C7.87762 21.7013 7.11375 21.7931 6.321 21.7931C5.76975 21.7931 5.21325 21.7616 4.69088 21.6461C5.8065 25.056 8.97225 27.5629 12.7365 27.6442C9.807 29.9359 6.08738 31.3166 2.06063 31.3166C1.3545 31.3166 0.67725 31.2851 0 31.1985C3.81412 33.6581 8.33438 35.0625 13.209 35.0625C29.0535 35.0625 37.716 21.9375 37.716 10.5608C37.716 10.1801 37.7029 9.81262 37.6845 9.44775C39.3934 8.235 40.8293 6.72038 42 4.97738Z" fill="#2A3A8D"/>
</svg>
